<svg version="1.1" xmlns="http://www.w3.org/2000/svg" xmlns:xlink="http://www.w3.org/1999/xlink" width="1040" height="600" xml:space="preserve" id="cutout">
    <!-- Generated by PaintCode - http://www.paintcodeapp.com -->
    <defs>
        <linearGradient id="cutout-gradient-bezier18" x1="207.78" y1="187.14" x2="912.47" y2="590.37" gradientUnits="userSpaceOnUse">
            <stop offset="0.14" stop-color="rgb(0, 0, 0)" stop-opacity="0"></stop>
            <stop offset="0.44" stop-color="rgb(64, 82, 91)" stop-opacity="0.05"></stop>
            <stop offset="1" stop-color="rgb(129, 163, 182)" stop-opacity="0.09"></stop>
        </linearGradient>
        <linearGradient id="cutout-gradient2-rectangle" x1="559" y1="564" x2="559" y2="382" gradientUnits="userSpaceOnUse">
            <stop offset="0" stop-color="rgb(255, 255, 255)" stop-opacity="1"></stop>
            <stop offset="1" stop-color="rgb(255, 255, 255)" stop-opacity="0"></stop>
        </linearGradient>
    </defs>
    <path id="cutout-bezier26" stroke="rgb(0, 0, 0)" stroke-width="3" stroke-miterlimit="10" fill="rgb(255, 255, 255)" d="M 928.5,563.5 L 928.5,259"></path>
    <path id="cutout-bezier25" stroke="rgb(0, 0, 0)" stroke-width="3" stroke-miterlimit="10" fill="rgb(255, 255, 255)" d="M 178.5,562.5 L 178.5,259"></path>
    <path id="cutout-bezier18" stroke="none" fill="url(#cutout-gradient-bezier18)" d="M 929,561.48 L 929,306.52 C 929,267.79 929,248.42 922.41,227.57 914.12,204.81 896.19,186.88 873.42,178.6 855.96,172.83 833.21,172 794.48,172 L 781.34,172 C 776.06,172 773.42,172 770.58,172.9 767.47,174.03 765.03,176.47 763.9,179.58 763.11,181.96 763,185.06 763,190.34 L 763,192 C 763,214.09 745.09,232 723,232 L 385,232 C 362.91,232 345,214.09 345,192 L 345,190.34 C 345,185.06 345,182.42 344.1,179.58 342.97,176.47 340.53,174.03 337.42,172.9 335.04,172.11 331.94,172 326.66,172 L 313.52,172 C 274.79,172 267.5,172 267.5,172 218.9,172 179.5,211.4 179.5,260 179.5,260 179,267.79 179,306.52 L 179,561.48"></path>
    <rect id="cutout-rectangle" stroke="none" fill="url(#cutout-gradient2-rectangle)" x="38" y="382" width="1042" height="182"></rect>
    <circle id="cutout-oval3" stroke="rgb(0, 0, 0)" stroke-width="1" stroke-miterlimit="10" fill="none" cx="383.5" cy="192.5" r="40"></circle>
    <path id="cutout-bezier2" stroke="rgb(65, 153, 231)" stroke-width="1" stroke-miterlimit="10" fill="rgb(255, 255, 255)" d="M 266.5,467.5 L 266.5,267"></path>
    <circle id="cutout-oval4" stroke="rgb(0, 0, 0)" stroke-width="1" stroke-miterlimit="10" fill="none" cx="0" cy="-0" r="12" transform="translate(331.5, 184.5)"></circle>
    <circle id="cutout-oval" stroke="rgb(0, 0, 0)" stroke-width="1" stroke-miterlimit="10" fill="none" cx="266.5" cy="260.5" r="88"></circle>
    <g id="cutout-group8">
        <path id="cutout-bezier13" stroke="rgb(65, 153, 231)" stroke-width="1" stroke-linecap="square" stroke-miterlimit="10" fill="none" d="M 178.5,58.5 L 928.5,58.5"></path>
        <polygon id="cutout-polygon" stroke="none" fill="rgb(65, 153, 231)" points="0,-9 3.68,4.5 -3.68,4.5" transform="translate(920, 58.5) rotate(90)"></polygon>
        <polygon id="cutout-polygon2" stroke="none" fill="rgb(65, 153, 231)" points="-0,-9 -3.68,4.5 3.68,4.5" transform="translate(187, 58.5) rotate(-90)"></polygon>
        
        <text fill="rgb(65, 153, 231)" font-family="AvenirNext-Medium, 'Avenir Next', sans-serif" font-size="18" x="526.52" y="16" text-anchor="middle"><tspan x="553.5" y="45">375 pt</tspan></text>
    </g>
    <g id="cutout-group9">
        <path id="cutout-bezier14" stroke="rgb(65, 153, 231)" stroke-width="1" stroke-linecap="square" stroke-miterlimit="10" fill="none" d="M 178.5,125.5 L 343.5,125.5"></path>
        <polygon id="cutout-polygon3" stroke="none" fill="rgb(65, 153, 231)" points="0,-9 3.68,4.5 -3.68,4.5" transform="translate(335, 125.5) rotate(90)"></polygon>
        <polygon id="cutout-polygon4" stroke="none" fill="rgb(65, 153, 231)" points="-0,-9 -3.68,4.5 3.68,4.5" transform="translate(187, 125.5) rotate(-90)"></polygon>
        
        <text fill="rgb(65, 153, 231)" font-family="AvenirNext-Medium, 'Avenir Next', sans-serif" font-size="18" x="239.37" y="83" text-anchor="middle"><tspan x="261" y="112">83 pt</tspan></text>
    </g>
    <g id="cutout-group10">
        <path id="cutout-bezier32" stroke="rgb(65, 153, 231)" stroke-width="1" stroke-linecap="square" stroke-miterlimit="10" fill="none" d="M 762.5,125.5 L 928.5,125.5"></path>
        <polygon id="cutout-polygon5" stroke="none" fill="rgb(65, 153, 231)" points="0,-9 3.68,4.5 -3.68,4.5" transform="translate(920, 125.5) rotate(90)"></polygon>
        <polygon id="cutout-polygon6" stroke="none" fill="rgb(65, 153, 231)" points="-0,-9 -3.68,4.5 3.68,4.5" transform="translate(771, 125.5) rotate(-90)"></polygon>
        
        <text fill="rgb(65, 153, 231)" font-family="AvenirNext-Medium, 'Avenir Next', sans-serif" font-size="18" x="823.87" y="83" text-anchor="middle"><tspan x="845.5" y="112">83 pt</tspan></text>
    </g>
    <g id="cutout-group11">
        <path id="cutout-bezier33" stroke="rgb(65, 153, 231)" stroke-width="1" stroke-linecap="square" stroke-miterlimit="10" fill="none" d="M 343.5,125.5 L 762.5,125.5"></path>
        <polygon id="cutout-polygon7" stroke="none" fill="rgb(65, 153, 231)" points="0,-9 3.68,4.5 -3.68,4.5" transform="translate(754, 125.5) rotate(90)"></polygon>
        <polygon id="cutout-polygon8" stroke="none" fill="rgb(65, 153, 231)" points="-0,-9 -3.68,4.5 3.68,4.5" transform="translate(352, 125.5) rotate(-90)"></polygon>
        
        <text fill="rgb(65, 153, 231)" font-family="AvenirNext-Medium, 'Avenir Next', sans-serif" font-size="18" x="526.02" y="83" text-anchor="middle"><tspan x="553" y="112">209 pt</tspan></text>
    </g>
    <g id="cutout-group12">
        <path id="cutout-bezier34" stroke="rgb(65, 153, 231)" stroke-width="1" stroke-linecap="square" stroke-miterlimit="10" fill="none" d="M 94.5,221.5 L 94.5,186.5"></path>
        <polygon id="cutout-polygon9" stroke="none" fill="rgb(65, 153, 231)" points="0,-9 3.68,4.5 -3.68,4.5" transform="translate(94.5, 223.5) rotate(180)"></polygon>
        <polygon id="cutout-polygon10" stroke="none" fill="rgb(65, 153, 231)" points="-0,-9 -3.68,4.5 3.68,4.5" transform="translate(94.5, 182.5)"></polygon>
        
        <text fill="rgb(65, 153, 231)" font-family="AvenirNext-Medium, 'Avenir Next', sans-serif" font-size="18" x="43.75" y="188" text-anchor="end"><tspan x="87" y="208">30 pt</tspan></text>
    </g>
    <path id="cutout-bezier5" opacity="0.3" stroke="rgb(65, 153, 231)" stroke-width="1" stroke-miterlimit="10" fill="rgb(255, 255, 255)" d="M 82,232.5 L 717.5,232.5"></path>
    <path id="cutout-bezier7" opacity="0.3" stroke="rgb(65, 153, 231)" stroke-width="1" stroke-miterlimit="10" fill="rgb(255, 255, 255)" d="M 343.5,192 L 343.5,108"></path>
    <path id="cutout-bezier4" opacity="0.3" stroke="rgb(65, 153, 231)" stroke-width="1" stroke-miterlimit="10" fill="rgb(255, 255, 255)" d="M 82,172.5 L 840.5,172.5"></path>
    <path id="cutout-bezier8" opacity="0.3" stroke="rgb(65, 153, 231)" stroke-width="1" stroke-miterlimit="10" fill="rgb(255, 255, 255)" d="M 762.5,192 L 762.5,108"></path>
    <path id="cutout-bezier9" opacity="0.3" stroke="rgb(65, 153, 231)" stroke-width="1" stroke-miterlimit="10" fill="rgb(255, 255, 255)" d="M 928.5,373 L 928.5,38"></path>
    <path id="cutout-bezier10" opacity="0.3" stroke="rgb(65, 153, 231)" stroke-width="1" stroke-miterlimit="10" fill="rgb(255, 255, 255)" d="M 178.5,259.5 L 178.5,39"></path>
    <circle id="cutout-oval2" opacity="0.2" stroke="rgb(0, 0, 0)" stroke-width="1" stroke-miterlimit="10" fill="none" cx="840.5" cy="260.5" r="88"></circle>
    <circle id="cutout-oval5" opacity="0.2" stroke="rgb(0, 0, 0)" stroke-width="1" stroke-miterlimit="10" fill="none" cx="722.5" cy="192.5" r="40"></circle>
    <circle id="cutout-oval6" opacity="0.2" stroke="rgb(0, 0, 0)" stroke-width="1" stroke-miterlimit="10" fill="none" cx="0" cy="-0" r="12" transform="translate(774.5, 184.5)"></circle>
    <circle id="cutout-oval10" stroke="none" fill="rgb(65, 153, 231)" cx="266.5" cy="470.5" r="3.5"></circle>
    <g id="cutout-group">
        <path id="cutout-bezier11" stroke="rgb(65, 153, 231)" stroke-width="1" stroke-miterlimit="10" fill="rgb(255, 255, 255)" d="M 331.5,389.5 L 331.5,191"></path>
        <circle id="cutout-oval12" stroke="none" fill="rgb(65, 153, 231)" cx="331.5" cy="389.5" r="3.5"></circle>
    </g>
    <path id="cutout-bezier17" stroke="rgb(65, 153, 231)" stroke-width="1" stroke-miterlimit="10" fill="rgb(255, 255, 255)" d="M 383.5,324.5 L 383.5,202"></path>
    <circle id="cutout-oval13" stroke="none" fill="rgb(65, 153, 231)" cx="383.5" cy="325.5" r="3.5"></circle>
    <g id="cutout-group2">
        <path id="cutout-bezier15" stroke="rgb(0, 0, 0)" stroke-width="1" stroke-miterlimit="10" fill="rgb(255, 255, 255)" d="M 383.5,202 L 383.5,189"></path>
        <path id="cutout-bezier16" stroke="rgb(0, 0, 0)" stroke-width="1" stroke-miterlimit="10" fill="rgb(255, 255, 255)" d="M 377,195.5 L 390,195.5"></path>
        <circle id="cutout-oval8" stroke="none" fill="rgb(0, 0, 0)" cx="383.5" cy="195.5" r="3.5"></circle>
    </g>
    <g id="cutout-group3" opacity="0.3">
        <circle id="cutout-oval9" stroke="none" fill="rgb(0, 0, 0)" cx="721.5" cy="193.5" r="3.5"></circle>
        <path id="cutout-bezier19" stroke="rgb(0, 0, 0)" stroke-width="1" stroke-miterlimit="10" fill="rgb(255, 255, 255)" d="M 721.5,200 L 721.5,187"></path>
        <path id="cutout-bezier20" stroke="rgb(0, 0, 0)" stroke-width="1" stroke-miterlimit="10" fill="rgb(255, 255, 255)" d="M 715,193.5 L 728,193.5"></path>
    </g>
    <g id="cutout-group4" opacity="0.2">
        <circle id="cutout-oval14" stroke="none" fill="rgb(0, 0, 0)" cx="839.5" cy="260.5" r="3.5"></circle>
        <path id="cutout-bezier21" stroke="rgb(0, 0, 0)" stroke-width="1" stroke-miterlimit="10" fill="rgb(255, 255, 255)" d="M 839.5,267 L 839.5,254"></path>
        <path id="cutout-bezier22" stroke="rgb(0, 0, 0)" stroke-width="1" stroke-miterlimit="10" fill="rgb(255, 255, 255)" d="M 833,260.5 L 846,260.5"></path>
    </g>
    <g id="cutout-group5" opacity="0.2">
        <circle id="cutout-oval15" stroke="none" fill="rgb(0, 0, 0)" cx="774.5" cy="184.5" r="3.5"></circle>
        <path id="cutout-bezier23" stroke="rgb(0, 0, 0)" stroke-width="1" stroke-miterlimit="10" fill="rgb(255, 255, 255)" d="M 774.5,191 L 774.5,178"></path>
        <path id="cutout-bezier24" stroke="rgb(0, 0, 0)" stroke-width="1" stroke-miterlimit="10" fill="rgb(255, 255, 255)" d="M 768,184.5 L 781,184.5"></path>
    </g>
    <path id="cutout-bezier27" stroke="rgb(0, 0, 0)" stroke-width="3" stroke-miterlimit="10" fill="rgb(255, 255, 255)" d="M 723,232.5 L 383,232.5"></path>
    <path id="cutout-bezier28" stroke="rgb(0, 0, 0)" stroke-width="3" stroke-miterlimit="10" fill="rgb(255, 255, 255)" d="M 332,172.5 L 265,172.5"></path>
    <path id="cutout-bezier29" stroke="rgb(0, 0, 0)" stroke-width="3" stroke-miterlimit="10" fill="rgb(255, 255, 255)" d="M 841.5,172.5 L 774,172.5"></path>
    
    <text fill="rgb(65, 153, 231)" font-family="AvenirNext-Medium, 'Avenir Next', sans-serif" font-size="18" x="281" y="454"><tspan x="281" y="476">40 pt radius</tspan></text>
    
    <text fill="rgb(65, 153, 231)" font-family="AvenirNext-Medium, 'Avenir Next', sans-serif" font-size="18" x="346" y="373"><tspan x="346" y="395">6 pt radius</tspan></text>
    
    <text fill="rgb(65, 153, 231)" font-family="AvenirNext-Medium, 'Avenir Next', sans-serif" font-size="18" x="403" y="309"><tspan x="403" y="331">20 pt radius</tspan></text>
    <path id="cutout-oval16" stroke="rgb(0, 0, 0)" stroke-width="3" stroke-miterlimit="10" fill="none" d="M 383.5,232.5 C 361.41,232.5 343.5,214.59 343.5,192.5"></path>
    <path id="cutout-oval17" stroke="rgb(0, 0, 0)" stroke-width="3" stroke-miterlimit="10" fill="none" d="M 178.5,260.5 C 178.5,211.9 217.9,172.5 266.5,172.5"></path>
    <path id="cutout-oval18" stroke="rgb(0, 0, 0)" stroke-width="3" stroke-miterlimit="10" fill="none" d="M 331.5,172.5 C 338.13,172.5 343.5,177.87 343.5,184.5"></path>
    <path id="cutout-bezier30" stroke="rgb(0, 0, 0)" stroke-width="3" stroke-miterlimit="10" fill="rgb(255, 255, 255)" d="M 343.5,184.5 L 343.5,194.5"></path>
    <path id="cutout-oval19" stroke="rgb(0, 0, 0)" stroke-width="3" stroke-miterlimit="10" fill="none" d="M 774.5,172.5 C 767.87,172.5 762.5,177.87 762.5,184.5"></path>
    <path id="cutout-oval20" stroke="rgb(0, 0, 0)" stroke-width="3" stroke-miterlimit="10" fill="none" d="M 722.5,232.5 C 744.59,232.5 762.5,214.59 762.5,192.5"></path>
    <path id="cutout-bezier31" stroke="rgb(0, 0, 0)" stroke-width="3" stroke-miterlimit="10" fill="rgb(255, 255, 255)" d="M 762.5,184 L 762.5,194.5"></path>
    <path id="cutout-oval21" stroke="rgb(0, 0, 0)" stroke-width="3" stroke-miterlimit="10" fill="none" d="M 928.5,260.5 C 928.5,211.9 889.1,172.5 840.5,172.5"></path>
    <g id="cutout-group6">
        <path id="cutout-bezier" stroke="rgb(0, 0, 0)" stroke-width="1" stroke-miterlimit="10" fill="rgb(255, 255, 255)" d="M 266.5,267 L 266.5,254"></path>
        <path id="cutout-bezier12" stroke="rgb(0, 0, 0)" stroke-width="1" stroke-miterlimit="10" fill="rgb(255, 255, 255)" d="M 260,260.5 L 273,260.5"></path>
        <circle id="cutout-oval7" stroke="none" fill="rgb(0, 0, 0)" cx="266.5" cy="260.5" r="3.5"></circle>
    </g>
    <g id="cutout-group7">
        <path id="cutout-bezier3" stroke="rgb(0, 0, 0)" stroke-width="1" stroke-miterlimit="10" fill="rgb(255, 255, 255)" d="M 331.5,191 L 331.5,178"></path>
        <path id="cutout-bezier6" stroke="rgb(0, 0, 0)" stroke-width="1" stroke-miterlimit="10" fill="rgb(255, 255, 255)" d="M 325,184.5 L 338,184.5"></path>
        <circle id="cutout-oval11" stroke="none" fill="rgb(0, 0, 0)" cx="331.5" cy="184.5" r="3.5"></circle>
    </g>

    <!-- Manually added copyright -->
    <text fill="rgb(0, 0, 0)" font-family="AvenirNext-Medium, 'Avenir Next', sans-serif" font-size="15" x="560" y="560" text-anchor="middle">
        Source: https://www.paintcodeapp.com/news/iphone-x-screen-demystified
    </text>
</svg>